<svg width="1200" height="630" viewBox="0 0 1200 630" fill="none" xmlns="http://www.w3.org/2000/svg">
  <rect width="1200" height="630" fill="#1E40AF"/>
  <rect x="50" y="50" width="1100" height="530" rx="20" fill="#E0F2FE"/>
  <path d="M214.016 315.72C214.016 311.896 214.76 308.584 216.248 305.784C217.8 302.984 219.896 300.824 222.536 299.304C225.176 297.72 228.168 296.928 231.512 296.928C235.528 296.928 238.968 298.056 241.832 300.312C244.696 302.568 246.536 305.624 247.352 309.48H238.712C238.2 307.832 237.272 306.536 235.928 305.592C234.648 304.648 233.08 304.176 231.224 304.176C228.552 304.176 226.424 305.112 224.84 306.984C223.256 308.792 222.464 311.896 222.464 315.72C222.464 319.544 223.256 322.648 224.84 324.456C226.424 326.264 228.552 327.368 231.224 327.368C234.936 327.368 237.4 325.528 238.616 321.848H247.256C246.376 325.56 244.568 328.552 241.832 330.872C239.096 333.128 235.656 334.256 231.512 334.256C228.168 334.256 225.176 333.48 222.536 331.928C219.896 330.312 217.8 328.136 216.248 325.4C214.76 322.6 214.016 319.416 214.016 315.72ZM262.536 327.56H281.912V334H254.568V296.992H262.536V327.56ZM311.368 334L300.536 317.72H296.872V334H288.904V296.992H303.752C307.064 296.992 309.896 297.592 312.248 298.792C314.664 299.992 316.44 301.64 317.576 303.736C318.712 305.832 319.28 308.184 319.28 310.792C319.28 313.912 318.392 316.632 316.616 318.952C314.904 321.272 312.28 322.712 308.744 323.272L320.44 334H311.368ZM296.872 311.704H303.24C305.336 311.704 306.904 311.112 307.944 309.928C308.984 308.68 309.504 307.032 309.504 304.984C309.504 302.952 308.984 301.336 307.944 300.152C306.968 298.968 305.4 298.376 303.24 298.376H296.872V311.704ZM324.512 296.992H345.88C349.704 296.992 353.016 297.8 355.816 299.416C358.616 300.968 360.776 303.128 362.296 305.896C363.88 308.6 364.672 311.72 364.672 315.256C364.672 318.792 363.88 321.944 362.296 324.648C360.776 327.352 358.616 329.48 355.816 331.032C353.016 332.584 349.704 333.36 345.88 333.36H324.512V296.992ZM345.368 326.904C348.936 326.904 351.736 325.816 353.768 323.64C355.8 321.464 356.816 318.696 356.816 315.336C356.816 311.976 355.8 309.208 353.768 307.032C351.736 304.856 348.936 303.768 345.368 303.768H332.416V326.904H345.368ZM396.064 334L385.232 317.72H381.568V334H373.6V296.992H388.448C391.76 296.992 394.592 297.592 396.944 298.792C399.36 299.992 401.136 301.64 402.272 303.736C403.408 305.832 403.976 308.184 403.976 310.792C403.976 313.912 403.088 316.632 401.312 318.952C399.6 321.272 396.976 322.712 393.44 323.272L405.136 334H396.064ZM381.568 311.704H387.936C390.032 311.704 391.6 311.112 392.64 309.928C393.68 308.68 394.2 307.032 394.2 304.984C394.2 302.952 393.68 301.336 392.64 300.152C391.664 298.968 390.096 298.376 387.936 298.376H381.568V311.704ZM436.08 327.56H455.456V334H428.112V296.992H436.08V327.56ZM485.648 334H477.68V316.56L462.544 296.992H471.68L481.6 310.424L491.488 296.992H500.24L485.648 316.56V334ZM529.016 327.56H548.392V334H521.048V296.992H529.016V327.56ZM574.296 334.448C570.856 334.448 567.832 333.704 565.224 332.216C562.68 330.664 560.68 328.536 559.224 325.832C557.768 323.064 557.04 319.992 557.04 316.616C557.04 313.24 557.768 310.184 559.224 307.416C560.68 304.648 562.696 302.536 565.256 301.048C567.816 299.56 570.824 298.816 574.264 298.816C577.32 298.816 579.992 299.432 582.28 300.664C584.568 301.896 586.36 303.608 587.656 305.8C588.952 307.992 589.672 310.52 589.816 313.384H582.12C581.848 311.032 580.952 309.032 579.4 307.384C577.848 305.672 575.8 304.816 573.256 304.816C571.288 304.816 569.56 305.336 568.072 306.376C566.584 307.352 565.432 308.776 564.616 310.648C563.8 312.52 563.392 314.68 563.392 317.128C563.392 319.576 563.784 321.736 564.568 323.608C565.416 325.48 566.584 326.936 568.072 327.976C569.56 329.016 571.288 329.536 573.256 329.536C574.776 329.536 576.152 329.192 577.384 328.504C578.616 327.752 579.624 326.744 580.408 325.48C581.192 324.216 581.672 322.744 581.848 321.064H589.816C589.672 323.864 588.968 326.392 587.704 328.648C586.44 330.84 584.68 332.584 582.424 333.88C580.168 334.256 577.384 334.448 574.296 334.448ZM605.032 334H597.064V296.992H605.032V334ZM632.752 334.448C629.536 334.448 626.656 333.672 624.112 332.12C621.632 330.568 619.664 328.424 618.208 325.688C616.752 322.888 616.024 319.704 616.024 316.136C616.024 312.568 616.752 309.384 618.208 306.584C619.664 303.784 621.664 301.624 624.208 300.088C626.752 298.552 629.632 297.784 632.848 297.784C636.064 297.784 638.944 298.552 641.488 300.088C644.032 301.624 646.016 303.768 647.44 306.52C648.896 309.272 649.624 312.376 649.624 315.832C649.624 316.584 649.592 317.208 649.528 317.704H624.28C624.472 320.6 625.384 322.888 627.032 324.568C628.744 326.184 630.8 326.992 633.2 326.992C635.04 326.992 636.56 326.568 637.768 325.72C639.04 324.808 639.968 323.624 640.552 322.168H648.808C648.04 324.584 646.776 326.76 645.016 328.696C643.32 330.568 641.248 332.04 638.8 333.112C636.352 334.008 634.752 334.448 632.752 334.448ZM624.088 312.056H641.392C641.2 309.416 640.36 307.288 638.872 305.672C637.384 304.056 635.344 303.24 632.752 303.24C630.224 303.24 628.184 304.056 626.632 305.672C625.08 307.288 624.248 309.416 624.088 312.056ZM671.96 334.448C669.224 334.448 666.76 333.896 664.568 332.792C662.376 331.624 660.632 330.024 659.336 327.992C658.04 325.896 657.336 323.528 657.224 320.888H665.096C665.272 322.792 665.976 324.36 667.208 325.592C668.504 326.76 670.072 327.4 672.088 327.4C674.088 327.4 675.592 326.904 676.6 325.912C677.608 324.856 678.12 323.608 678.12 322.168C678.12 320.728 677.736 319.56 676.968 318.664C676.2 317.768 675.2 317.064 673.968 316.552C672.8 316.04 671.096 315.464 668.856 314.824C665.976 313.992 663.624 313.176 661.8 312.376C659.976 311.576 658.408 310.344 657.096 308.68C655.784 307.016 655.128 304.76 655.128 301.912C655.128 299.144 655.784 296.744 657.096 294.712C658.408 292.68 660.248 291.112 662.616 290.008C664.984 288.92 667.72 288.344 670.824 288.344C673.304 288.344 675.576 288.76 677.64 289.592C679.768 290.36 681.576 291.496 683.064 292.984C684.616 294.408 685.752 296.056 686.472 297.928C687.256 299.736 687.656 301.656 687.672 303.688H679.992C679.96 302.408 679.64 301.24 679.032 300.184C678.44 299.096 677.624 298.264 676.584 297.672C675.544 297.08 674.328 296.776 672.92 296.776C671.48 296.776 670.232 297.112 669.176 297.768C668.12 298.408 667.304 299.224 666.728 300.216C666.168 301.208 665.864 302.264 665.816 303.368C665.784 304.456 666.008 305.384 666.488 306.152C666.984 306.92 667.672 307.576 668.552 308.12C669.432 308.648 670.424 309.096 671.528 309.464C672.632 309.816 673.8 310.168 675.032 310.52C677.56 311.176 679.768 311.944 681.656 312.824C683.544 313.704 685.048 315.016 686.168 316.76C687.304 318.504 687.864 320.84 687.864 323.768C687.864 326.28 687.224 328.568 685.944 330.632C684.664 332.696 682.856 334.336 680.52 335.544C678.184 336.752 675.328 337.336 671.96 337.336V334.448ZM710.76 334H702.728V304.752H690.008V297.784H723.448V304.752H710.76V334ZM751.56 334.448C748.344 334.448 745.464 333.672 742.92 332.12C740.44 330.568 738.472 328.424 737.016 325.688C735.56 322.888 734.832 319.704 734.832 316.136C734.832 312.568 735.56 309.384 737.016 306.584C738.472 303.784 740.472 301.624 743.016 300.088C745.56 298.552 748.44 297.784 751.656 297.784C754.872 297.784 757.752 298.552 760.296 300.088C762.84 301.624 764.824 303.768 766.248 306.52C767.704 309.272 768.432 312.376 768.432 315.832C768.432 316.584 768.4 317.208 768.336 317.704H743.088C743.28 320.6 744.192 322.888 745.84 324.568C747.552 326.184 749.608 326.992 752.008 326.992C753.848 326.992 755.368 326.568 756.576 325.72C757.848 324.808 758.776 323.624 759.36 322.168H767.616C766.848 324.584 765.584 326.76 763.824 328.696C762.128 330.568 760.056 332.04 757.608 333.112C755.16 334.008 753.56 334.448 751.56 334.448ZM742.896 312.056H760.2C760.008 309.416 759.168 307.288 757.68 305.672C756.192 304.056 754.152 303.24 751.56 303.24C749.032 303.24 746.992 304.056 745.44 305.672C743.888 307.288 743.056 309.416 742.896 312.056ZM789.928 303.96V322.424C789.928 323.864 790.248 324.888 790.888 325.496C791.528 326.104 792.648 326.408 794.248 326.408H798.68V333.376H792.536C789.096 333.376 786.456 332.584 784.616 331C782.776 329.352 781.864 326.712 781.864 323.08V303.96H777.368V297.784H781.96V288.232H789.928V297.784H798.68V303.96H789.928ZM813.688 334.448C811.176 334.448 808.984 333.896 807.112 332.792C805.24 331.688 803.768 330.232 802.696 328.424C801.624 326.552 801.088 324.504 801.088 322.28C801.088 320.248 801.48 318.52 802.264 317.096C803.048 315.672 804.152 314.488 805.576 313.544C806.936 312.6 808.488 311.864 810.232 311.336C812.04 310.808 813.848 310.408 815.656 310.136C817.88 309.8 819.688 309.512 821.08 309.272C822.472 308.968 823.496 308.536 824.152 307.976C824.808 307.416 825.136 306.648 825.136 305.672V305.512C825.136 303.64 824.552 302.184 823.384 301.144C822.216 300.104 820.536 299.608 818.344 299.608C816.024 299.608 814.168 300.088 812.776 301.048C811.384 302.008 810.44 303.128 809.944 304.408L802.84 302.568C803.64 300.344 804.824 298.52 806.392 297.096C807.96 295.672 809.784 294.632 811.864 293.976C813.944 293.32 816.168 292.992 818.536 292.992C820.152 292.992 821.816 293.176 823.528 293.544C825.24 293.912 826.824 294.552 828.28 295.464C829.736 296.376 830.92 297.656 831.832 299.304C832.744 300.952 833.2 303.064 833.2 305.64V334H825.52V328.504H825.232C824.768 329.448 824.056 330.328 823.096 331.144C822.136 331.96 820.952 332.616 819.544 333.112C818.136 334.008 816.04 334.448 813.688 334.448ZM815.528 328.12C817.496 328.12 819.208 327.736 820.664 326.968C822.12 326.2 823.24 325.176 824.024 323.896C824.808 322.616 825.2 321.224 825.2 319.72V313.32C824.944 313.672 824.44 314.008 823.688 314.328C822.936 314.584 822.088 314.84 821.144 315.096C820.2 315.288 819.272 315.464 818.36 315.624C817.448 315.784 816.68 315.912 816.056 316.008C814.536 316.232 813.16 316.568 811.928 317.016C810.696 317.464 809.72 318.088 809 318.888C808.28 319.624 807.92 320.6 807.92 321.8C807.92 323.48 808.552 324.744 809.816 325.592C811.08 326.376 813.08 326.76 815.528 326.76V328.12ZM862.872 334.448C860.136 334.448 857.672 333.896 855.48 332.792C853.288 331.624 851.544 330.024 850.248 327.992C848.952 325.896 848.248 323.528 848.136 320.888H856.008C856.184 322.792 856.888 324.36 858.12 325.592C859.416 326.76 860.984 327.4 863 327.4C865 327.4 866.504 326.904 867.512 325.912C868.52 324.856 869.032 323.608 869.032 322.168C869.032 320.728 868.648 319.56 867.88 318.664C867.112 317.768 866.112 317.064 864.88 316.552C863.712 316.04 862.008 315.464 859.768 314.824C856.888 313.992 854.536 313.176 852.712 312.376C850.888 311.576 849.32 310.344 848.008 308.68C846.696 307.016 846.04 304.76 846.04 301.912C846.04 299.144 846.696 296.744 848.008 294.712C849.32 292.68 851.16 291.112 853.528 290.008C855.896 288.92 858.632 288.344 861.736 288.344C864.216 288.344 866.488 288.76 868.552 289.592C870.68 290.36 872.488 291.496 873.976 292.984C875.528 294.408 876.664 296.056 877.384 297.928C878.168 299.736 878.568 301.656 878.584 303.688H870.904C870.872 302.408 870.552 301.24 869.944 300.184C869.352 299.096 868.536 298.264 867.496 297.672C866.456 297.08 865.24 296.776 863.832 296.776C862.392 296.776 861.144 297.112 860.088 297.768C859.032 298.408 858.216 299.224 857.64 300.216C857.08 301.208 856.776 302.264 856.728 303.368C856.696 304.456 856.92 305.384 857.4 306.152C857.896 306.92 858.584 307.576 859.464 308.12C860.344 308.648 861.336 309.096 862.44 309.464C863.544 309.816 864.712 310.168 865.944 310.52C868.472 311.176 870.68 311.944 872.568 312.824C874.456 313.704 875.96 315.016 877.08 316.76C878.216 318.504 878.776 320.84 878.776 323.768C878.776 326.28 878.136 328.568 876.856 330.632C875.576 332.696 873.768 334.336 871.432 335.544C869.096 336.752 866.24 337.336 862.872 337.336V334.448ZM893.832 288.52H901.8V334H893.832V288.52ZM922.992 334.448C920.48 334.448 918.288 333.896 916.416 332.792C914.544 331.688 913.072 330.232 912 328.424C910.928 326.552 910.392 324.504 910.392 322.28C910.392 320.248 910.784 318.52 911.568 317.096C912.352 315.672 913.456 314.488 914.88 313.544C916.24 312.6 917.792 311.864 919.536 311.336C921.344 310.808 923.152 310.408 924.96 310.136C927.184 309.8 928.992 309.512 930.384 309.272C931.776 308.968 932.8 308.536 933.456 307.976C934.112 307.416 934.44 306.648 934.44 305.672V305.512C934.44 303.64 933.856 302.184 932.688 301.144C931.52 300.104 929.84 299.608 927.648 299.608C925.328 299.608 923.472 300.088 922.08 301.048C920.688 302.008 919.744 303.128 919.248 304.408L912.144 302.568C912.944 300.344 914.128 298.52 915.696 297.096C917.264 295.672 919.088 294.632 921.168 293.976C923.248 293.32 925.472 292.992 927.84 292.992C929.456 292.992 931.12 293.176 932.832 293.544C934.544 293.912 936.128 294.552 937.584 295.464C939.04 296.376 940.224 297.656 941.136 299.304C942.048 300.952 942.504 303.064 942.504 305.64V334H934.824V328.504H934.536C934.072 329.448 933.36 330.328 932.4 331.144C931.44 331.96 930.256 332.616 928.848 333.112C927.44 334.008 925.344 334.448 922.992 334.448ZM924.832 328.12C926.8 328.12 928.512 327.736 929.968 326.968C931.424 326.2 932.544 325.176 933.328 323.896C934.112 322.616 934.504 321.224 934.504 319.72V313.32C934.248 313.672 933.744 314.008 932.992 314.328C932.24 314.584 931.392 314.84 930.448 315.096C929.504 315.288 928.576 315.464 927.664 315.624C926.752 315.784 925.984 315.912 925.36 316.008C923.84 316.232 922.464 316.568 921.232 317.016C920 317.464 919.024 318.088 918.304 318.888C917.584 319.624 917.224 320.6 917.224 321.8C917.224 323.48 917.856 324.744 919.12 325.592C920.384 326.376 922.384 326.76 924.832 326.76V328.12ZM961.464 334L947.784 297.784H956.232L965.448 325.4H965.768L974.984 297.784H983.432L969.752 334H961.464Z" fill="#1E40AF"/>
  <g transform="translate(650, 165) scale(7)">
    <path d="M19.4263 12.5H4.57375C3.70609 12.5 3 13.2061 3 14.0737V16.9263C3 17.7939 3.70609 18.5 4.57375 18.5H6.5V20.4263C6.5 21.2939 7.20609 22 8.07375 22H15.9263C16.7939 22 17.5 21.2939 17.5 20.4263V18.5H19.4263C20.2939 18.5 21 17.7939 21 16.9263V14.0737C21 13.2061 20.2939 12.5 19.4263 12.5Z" fill="#1E40AF"/>
    <path d="M12 9C12.5523 9 13 8.55228 13 8V6C13 5.44772 12.5523 5 12 5C11.4477 5 11 5.44772 11 6V8C11 8.55228 11.4477 9 12 9Z" fill="#1E40AF"/>
    <path d="M8.46967 11.0303C8.76256 11.3232 9.23744 11.3232 9.53033 11.0303C9.82322 10.7374 9.82322 10.2626 9.53033 9.96967L8.12132 8.56066C7.82843 8.26777 7.35355 8.26777 7.06066 8.56066C6.76777 8.85355 6.76777 9.32843 7.06066 9.62132L8.46967 11.0303Z" fill="#1E40AF"/>
    <path d="M16.9393 8.56066C16.6464 8.26777 16.1716 8.26777 15.8787 8.56066L14.4697 9.96967C14.1768 10.2626 14.1768 10.7374 14.4697 11.0303C14.7626 11.3232 15.2374 11.3232 15.5303 11.0303L16.9393 9.62132C17.2322 9.32843 17.2322 8.85355 16.9393 8.56066Z" fill="#1E40AF"/>
    <path d="M4 10C4.55228 10 5 9.55228 5 9C5 8.44772 4.55228 8 4 8H3C2.44772 8 2 8.44772 2 9C2 9.55228 2.44772 10 3 10H4Z" fill="#1E40AF"/>
    <path d="M21 8H20C19.4477 8 19 8.44772 19 9C19 9.55228 19.4477 10 20 10H21C21.5523 10 22 9.55228 22 9C22 8.44772 21.5523 8 21 8Z" fill="#1E40AF"/>
  </g>
</svg> 